{
  "accessors": [
    {
      "bufferView": 2,
      "componentType": 5126,
      "count": 418,
      "max": [
        0.35730299353599548,
        5.9414000511169434,
        0.55330997705459595
      ],
      "min": [
        -0.35730299353599548,
        5.6464099884033203,
        -0.15652400255203247
      ],
      "type": "VEC3"
    },
    {
      "bufferView": 2,
      "byteOffset": 5016,
      "componentType": 5126,
      "count": 418,
      "max": [
        1,
        0.99927645921707153,
        0.99219781160354614
      ],
      "min": [
        -1,
        -0.99927645921707153,
        -0.99219781160354614
      ],
      "type": "VEC3"
    },
    {
      "bufferView": 3,
      "componentType": 5126,
      "count": 418,
      "max": [
        0.67531996965408325,
        0.99219793081283569,
        0.99927657842636108,
        1
      ],
      "min": [
        -0.6753162145614624,
        -0.99219787120819092,
        -0.12467345595359802,
        1
      ],
      "type": "VEC4"
    },
    {
      "bufferView": 1,
      "componentType": 5126,
      "count": 418,
      "max": [
        0.48207798600196838,
        0.23042699694633484
      ],
      "min": [
        0.43814599514007568,
        0.12224499881267548
      ],
      "type": "VEC2"
    },
    {
      "bufferView": 0,
      "componentType": 5125,
      "count": 2304,
      "max": [
        417
      ],
      "min": [
        0
      ],
      "type": "SCALAR"
    },
    {
      "bufferView": 2,
      "byteOffset": 10032,
      "componentType": 5126,
      "count": 3714,
      "max": [
        4.3058099746704102,
        0.74324899911880493,
        8.2323102951049805
      ],
      "min": [
        -4.3041701316833496,
        -1.7730400562286377,
        1.8872100114822388
      ],
      "type": "VEC3"
    },
    {
      "bufferView": 2,
      "byteOffset": 54600,
      "componentType": 5126,
      "count": 3714,
      "max": [
        0.98792016506195068,
        0.99615466594696045,
        0.99472743272781372
      ],
      "min": [
        -0.989391028881073,
        -0.99455356597900391,
        -0.99295723438262939
      ],
      "type": "VEC3"
    },
    {
      "bufferView": 3,
      "byteOffset": 6688,
      "componentType": 5126,
      "count": 3714,
      "max": [
        0.97701925039291382,
        0.95830744504928589,
        0.99964898824691772,
        1
      ],
      "min": [
        -0.9900062084197998,
        -0.99470603466033936,
        -0.92894506454467773,
        -1
      ],
      "type": "VEC4"
    },
    {
      "bufferView": 1,
      "byteOffset": 3344,
      "componentType": 5126,
      "count": 3714,
      "max": [
        0.99252897500991821,
        0.86161899566650391
      ],
      "min": [
        0.75547999143600464,
        0.016736000776290894
      ],
      "type": "VEC2"
    },
    {
      "bufferView": 0,
      "byteOffset": 9216,
      "componentType": 5125,
      "count": 21312,
      "max": [
        3713
      ],
      "min": [
        0
      ],
      "type": "SCALAR"
    },
    {
      "bufferView": 2,
      "byteOffset": 99168,
      "componentType": 5126,
      "count": 10546,
      "max": [
        0.90060198307037354,
        0.99512201547622681,
        -4.1071500778198242
      ],
      "min": [
        -2.32600998878479,
        0.093235000967979431,
        -4.914639949798584
      ],
      "type": "VEC3"
    },
    {
      "bufferView": 2,
      "byteOffset": 225720,
      "componentType": 5126,
      "count": 10546,
      "max": [
        0.99999642372131348,
        0.99969398975372314,
        0.99987912178039551
      ],
      "min": [
        -0.99980199337005615,
        -0.99941051006317139,
        -0.99993330240249634
      ],
      "type": "VEC3"
    },
    {
      "bufferView": 3,
      "byteOffset": 66112,
      "componentType": 5126,
      "count": 10546,
      "max": [
        0.99998331069946289,
        0.99997878074645996,
        0.99962925910949707,
        1
      ],
      "min": [
        -0.99999868869781494,
        -0.99987274408340454,
        -0.99882328510284424,
        -1
      ],
      "type": "VEC4"
    },
    {
      "bufferView": 0,
      "byteOffset": 94464,
      "componentType": 5125,
      "count": 60096,
      "max": [
        10545
      ],
      "min": [
        0
      ],
      "type": "SCALAR"
    },
    {
      "bufferView": 2,
      "byteOffset": 352272,
      "componentType": 5126,
      "count": 14668,
      "max": [
        2.5170300006866455,
        0.9993630051612854,
        -4.0156698226928711
      ],
      "min": [
        -0.7686460018157959,
        0.10003600269556046,
        -4.9299302101135254
      ],
      "type": "VEC3"
    },
    {
      "bufferView": 2,
      "byteOffset": 528288,
      "componentType": 5126,
      "count": 14668,
      "max": [
        0.99999362230300903,
        0.99999266862869263,
        0.99998015165328979
      ],
      "min": [
        -0.99999463558197021,
        -0.99999576807022095,
        -0.99999243021011353
      ],
      "type": "VEC3"
    },
    {
      "bufferView": 3,
      "byteOffset": 234848,
      "componentType": 5126,
      "count": 14668,
      "max": [
        0.99999672174453735,
        0.99999988079071045,
        0.99982702732086182,
        1
      ],
      "min": [
        -0.99999672174453735,
        -0.43922659754753113,
        -0.99984151124954224,
        -1
      ],
      "type": "VEC4"
    },
    {
      "bufferView": 0,
      "byteOffset": 334848,
      "componentType": 5125,
      "count": 86208,
      "max": [
        14667
      ],
      "min": [
        0
      ],
      "type": "SCALAR"
    },
    {
      "bufferView": 2,
      "byteOffset": 704304,
      "componentType": 5126,
      "count": 7322,
      "max": [
        4.6697797775268555,
        2.0862500667572021,
        4.7717299461364746
      ],
      "min": [
        -4.6766300201416016,
        0.032299000769853592,
        -4.399940013885498
      ],
      "type": "VEC3"
    },
    {
      "bufferView": 2,
      "byteOffset": 792168,
      "componentType": 5126,
      "count": 7322,
      "max": [
        0.99995392560958862,
        0.99993628263473511,
        0.99524027109146118
      ],
      "min": [
        -0.99820613861083984,
        -0.99999862909317017,
        -0.99500745534896851
      ],
      "type": "VEC3"
    },
    {
      "bufferView": 3,
      "byteOffset": 469536,
      "componentType": 5126,
      "count": 7322,
      "max": [
        0.99995511770248413,
        0.99999344348907471,
        0.99892705678939819,
        1
      ],
      "min": [
        -0.99998873472213745,
        -0.2579379677772522,
        -0.99970966577529907,
        -1
      ],
      "type": "VEC4"
    },
    {
      "bufferView": 1,
      "byteOffset": 33056,
      "componentType": 5126,
      "count": 7322,
      "max": [
        0.10541100054979324,
        0.97350198030471802
      ],
      "min": [
        0.0034960000775754452,
        0.18956699967384338
      ],
      "type": "VEC2"
    },
    {
      "bufferView": 0,
      "byteOffset": 679680,
      "componentType": 5125,
      "count": 42240,
      "max": [
        7321
      ],
      "min": [
        0
      ],
      "type": "SCALAR"
    },
    {
      "bufferView": 2,
      "byteOffset": 880032,
      "componentType": 5126,
      "count": 114,
      "max": [
        0.2940559983253479,
        5.7389001846313477,
        0.4749700129032135
      ],
      "min": [
        -0.2940559983253479,
        5.6019401550292969,
        -0.10921599715948105
      ],
      "type": "VEC3"
    },
    {
      "bufferView": 2,
      "byteOffset": 881400,
      "componentType": 5126,
      "count": 114,
      "max": [
        1,
        0.99950367212295532,
        0.99219769239425659
      ],
      "min": [
        -1,
        -0.99950367212295532,
        -0.99219793081283569
      ],
      "type": "VEC3"
    },
    {
      "bufferView": 3,
      "byteOffset": 586688,
      "componentType": 5126,
      "count": 114,
      "max": [
        0.79808473587036133,
        0.99219799041748047,
        0.9995037317276001,
        1
      ],
      "min": [
        -0.79811805486679077,
        -0.99219805002212524,
        -0.12467443943023682,
        1
      ],
      "type": "VEC4"
    },
    {
      "bufferView": 0,
      "byteOffset": 848640,
      "componentType": 5125,
      "count": 576,
      "max": [
        113
      ],
      "min": [
        0
      ],
      "type": "SCALAR"
    },
    {
      "bufferView": 2,
      "byteOffset": 882768,
      "componentType": 5126,
      "count": 11572,
      "max": [
        4.7419900894165039,
        5.8434901237487793,
        4.8204197883605957
      ],
      "min": [
        -4.7430601119995117,
        0.039468001574277878,
        -4.5362801551818848
      ],
      "type": "VEC3"
    },
    {
      "bufferView": 2,
      "byteOffset": 1021632,
      "componentType": 5126,
      "count": 11572,
      "max": [
        0.999744713306427,
        0.99999326467514038,
        0.99922209978103638
      ],
      "min": [
        -0.99987620115280151,
        -1,
        -0.99990212917327881
      ],
      "type": "VEC3"
    },
    {
      "bufferView": 3,
      "byteOffset": 588512,
      "componentType": 5126,
      "count": 11572,
      "max": [
        1,
        0.99976998567581177,
        0.99876439571380615,
        1
      ],
      "min": [
        -0.99558210372924805,
        -0.99971991777420044,
        -0.99915057420730591,
        -1
      ],
      "type": "VEC4"
    },
    {
      "bufferView": 1,
      "byteOffset": 91632,
      "componentType": 5126,
      "count": 11572,
      "max": [
        0.81197500228881836,
        0.99354499578475952
      ],
      "min": [
        0.10974899679422379,
        0.11017899960279465
      ],
      "type": "VEC2"
    },
    {
      "bufferView": 0,
      "byteOffset": 850944,
      "componentType": 5125,
      "count": 66816,
      "max": [
        11571
      ],
      "min": [
        0
      ],
      "type": "SCALAR"
    }
  ],
  "asset": {
    "extras": {
      "author": "Scott VanArsdale (https://sketchfab.com/vanart)",
      "license": "CC-BY-4.0 (http://creativecommons.org/licenses/by/4.0/)",
      "source": "https://sketchfab.com/models/1c1d34d73fd94e6b9e8f82b1eb7194a0",
      "title": "Baseball Cap"
    },
    "generator": "Sketchfab-3.19.6",
    "version": "2.0"
  },
  "bufferViews": [
    {
      "buffer": 0,
      "byteLength": 1118208,
      "byteOffset": 0,
      "name": "floatBufferViews",
      "target": 34963
    },
    {
      "buffer": 0,
      "byteLength": 184208,
      "byteOffset": 1118208,
      "byteStride": 8,
      "name": "floatBufferViews",
      "target": 34962
    },
    {
      "buffer": 0,
      "byteLength": 1160496,
      "byteOffset": 1302416,
      "byteStride": 12,
      "name": "floatBufferViews",
      "target": 34962
    },
    {
      "buffer": 0,
      "byteLength": 773664,
      "byteOffset": 2462912,
      "byteStride": 16,
      "name": "floatBufferViews",
      "target": 34962
    }
  ],
  "buffers": [
    {
      "byteLength": 3236576,
      "uri": "scene.bin"
    }
  ],
  "extensionsRequired": [
    "KHR_materials_pbrSpecularGlossiness"
  ],
  "extensionsUsed": [
    "KHR_materials_pbrSpecularGlossiness"
  ],
  "images": [
    {
      "uri": "textures/baseballCap_diffuse.jpeg"
    },
    {
      "uri": "textures/baseballCap_normal.png"
    },
    {
      "uri": "textures/baseballCap_specularGlossiness.png"
    }
  ],
  "materials": [
    {
      "doubleSided": false,
      "extensions": {
        "KHR_materials_pbrSpecularGlossiness": {
          "diffuseFactor": [
            1,
            1,
            1,
            1
          ],
          "diffuseTexture": {
            "index": 0,
            "texCoord": 0
          },
          "glossinessFactor": 1,
          "specularFactor": [
            1,
            1,
            1
          ],
          "specularGlossinessTexture": {
            "index": 2,
            "texCoord": 0
          }
        }
      },
      "name": "baseballCap",
      "normalTexture": {
        "index": 1,
        "scale": 0.56878810980000005,
        "texCoord": 0
      }
    },
    {
      "doubleSided": true,
      "emissiveFactor": [
        0,
        0,
        0
      ],
      "extensions": {
        "KHR_materials_pbrSpecularGlossiness": {
          "diffuseFactor": [
            0.72548999999999997,
            0.72548999999999997,
            0.72548999999999997,
            1
          ],
          "glossinessFactor": 0.14719610380000001,
          "specularFactor": [
            0.050000000000000003,
            0.050000000000000003,
            0.050000000000000003
          ]
        }
      },
      "name": "blinn1SG"
    },
    {
      "doubleSided": true,
      "emissiveFactor": [
        0,
        0,
        0
      ],
      "extensions": {
        "KHR_materials_pbrSpecularGlossiness": {
          "diffuseFactor": [
            0.37254900000000002,
            0.37254900000000002,
            0.37254900000000002,
            1
          ],
          "glossinessFactor": 0.074617038299999994,
          "specularFactor": [
            0.050000000000000003,
            0.050000000000000003,
            0.050000000000000003
          ]
        }
      },
      "name": "plastic"
    }
  ],
  "meshes": [
    {
      "name": "baseballCap",
      "primitives": [
        {
          "attributes": {
            "NORMAL": 1,
            "POSITION": 0,
            "TANGENT": 2,
            "TEXCOORD_0": 3
          },
          "indices": 4,
          "material": 0,
          "mode": 4
        }
      ]
    },
    {
      "name": "baseballCap",
      "primitives": [
        {
          "attributes": {
            "NORMAL": 6,
            "POSITION": 5,
            "TANGENT": 7,
            "TEXCOORD_0": 8
          },
          "indices": 9,
          "material": 0,
          "mode": 4
        }
      ]
    },
    {
      "name": "plastic",
      "primitives": [
        {
          "attributes": {
            "NORMAL": 11,
            "POSITION": 10,
            "TANGENT": 12
          },
          "indices": 13,
          "material": 2,
          "mode": 4
        }
      ]
    },
    {
      "name": "plastic",
      "primitives": [
        {
          "attributes": {
            "NORMAL": 15,
            "POSITION": 14,
            "TANGENT": 16
          },
          "indices": 17,
          "material": 2,
          "mode": 4
        }
      ]
    },
    {
      "name": "baseballCap",
      "primitives": [
        {
          "attributes": {
            "NORMAL": 19,
            "POSITION": 18,
            "TANGENT": 20,
            "TEXCOORD_0": 21
          },
          "indices": 22,
          "material": 0,
          "mode": 4
        }
      ]
    },
    {
      "name": "blinn1SG",
      "primitives": [
        {
          "attributes": {
            "NORMAL": 24,
            "POSITION": 23,
            "TANGENT": 25
          },
          "indices": 26,
          "material": 1,
          "mode": 4
        }
      ]
    },
    {
      "name": "baseballCap",
      "primitives": [
        {
          "attributes": {
            "NORMAL": 28,
            "POSITION": 27,
            "TANGENT": 29,
            "TEXCOORD_0": 30
          },
          "indices": 31,
          "material": 0,
          "mode": 4
        }
      ]
    }
  ],
  "nodes": [
    {
      "children": [
        1
      ],
      "name": "RootNode (gltf orientation matrix)",
      "rotation": [
        -0.70710678118654746,
        -0,
        -0,
        0.70710678118654757
      ]
    },
    {
      "children": [
        2
      ],
      "name": "RootNode (model correction matrix)"
    },
    {
      "children": [
        3,
        5,
        7,
        9,
        11,
        13,
        15,
        17,
        19,
        21,
        23,
        25,
        27
      ],
      "matrix": [
        1,
        0,
        0,
        0,
        0,
        -4.3711390063094768e-08,
        0.999999999999999,
        0,
        0,
        -0.999999999999999,
        -4.3711390063094768e-08,
        0,
        0,
        0,
        0,
        1
      ],
      "name": "Collada visual scene group"
    },
    {
      "children": [
        4
      ],
      "matrix": [
        0.77482244935955613,
        -0.18851816532922722,
        0.60341616924752706,
        0,
        0,
        0.95450221673642632,
        0.29820381997091949,
        0,
        -0.63217890819645184,
        -0.23105501419824401,
        0.73956974549084376,
        0,
        -6.7864004663686046,
        2.6952495346505572,
        -725.45889950296964,
        1
      ],
      "name": "__4right_2"
    },
    {
      "name": "__4right_3"
    },
    {
      "children": [
        6
      ],
      "matrix": [
        1,
        0,
        0,
        0,
        0,
        1,
        0,
        0,
        0,
        0,
        0.99999999999999989,
        0,
        0.0053539997898042202,
        -59.432701110839844,
        -699.11999511718739,
        1
      ],
      "name": "Default_Camera"
    },
    {
      "name": "Default_Camera1"
    },
    {
      "children": [
        8
      ],
      "name": "Image_Based_Light_1"
    },
    {
      "name": "Image_Based_Light_1"
    },
    {
      "children": [
        10
      ],
      "matrix": [
        -0.73649221140611187,
        -0.67410844075727994,
        -0.056187477589974139,
        0,
        0,
        0.083062765761771601,
        -0.99654431760158335,
        0,
        0.6764460233737315,
        -0.73394712823458486,
        -0.06117508004139504,
        0,
        1.2126218723148319,
        2.3632251312785213,
        -99.066142460331747,
        1
      ],
      "name": "Infinite_Light_3"
    },
    {
      "name": "Infinite_Light_3"
    },
    {
      "children": [
        12
      ],
      "matrix": [
        -0.0015032820158543464,
        -0.032651452071206781,
        0.99946566865541842,
        0,
        0,
        0.99946679798198601,
        0.032651488965072618,
        0,
        -0.99999887007095212,
        4.9084396152060313e-05,
        -0.0015024804628498486,
        0,
        13.67133655149809,
        -14.49217943394761,
        -83.28404348410902,
        1
      ],
      "name": "Infinite_Light_2"
    },
    {
      "name": "Infinite_Light_2"
    },
    {
      "children": [
        14
      ],
      "matrix": [
        0.89918939251504681,
        -0.43554395880672842,
        0.041951118404449934,
        0,
        0,
        0.095875201474305602,
        0.99539336231575359,
        0,
        -0.43755963752204252,
        -0.89504715277421254,
        0.086209964170938527,
        0,
        13.419215491335335,
        35.564495086116537,
        -149.63808302883612,
        1
      ],
      "name": "Infinite_Light_1"
    },
    {
      "name": "Infinite_Light_1"
    },
    {
      "children": [
        16
      ],
      "matrix": [
        20.117799999999999,
        0,
        0,
        0,
        0,
        19.857600000000001,
        -3.2256300000000002,
        0,
        0,
        3.2256300000000002,
        19.857600000000001,
        0,
        0.0054169999999999999,
        -2.9003899999999998,
        -11.8424,
        1
      ],
      "name": "topButton"
    },
    {
      "mesh": 0,
      "name": "baseballCap"
    },
    {
      "children": [
        18
      ],
      "matrix": [
        20.117799999999999,
        0,
        0,
        0,
        0,
        19.857600000000001,
        -3.2256300000000002,
        0,
        0,
        3.2256300000000002,
        19.857600000000001,
        0,
        0.0054169999999999999,
        -2.9004500000000002,
        -11.8423,
        1
      ],
      "name": "bill"
    },
    {
      "mesh": 1,
      "name": "baseballCap"
    },
    {
      "children": [
        20
      ],
      "matrix": [
        20.117799999999999,
        0,
        0,
        0,
        0,
        19.857600000000001,
        -3.2256300000000002,
        0,
        0,
        3.2256300000000002,
        19.857600000000001,
        0,
        0.0054130000000000003,
        -2.9004400000000001,
        -11.8424,
        1
      ],
      "name": "strapAdjust_male"
    },
    {
      "mesh": 2,
      "name": "plastic"
    },
    {
      "children": [
        22
      ],
      "matrix": [
        20.117799999999999,
        0,
        0,
        0,
        0,
        19.857600000000001,
        -3.2256300000000002,
        0,
        0,
        3.2256300000000002,
        19.857600000000001,
        0,
        0.0054260000000000003,
        -2.9004500000000002,
        -11.842499999999999,
        1
      ],
      "name": "strapAdjust_female"
    },
    {
      "mesh": 3,
      "name": "plastic"
    },
    {
      "children": [
        24
      ],
      "matrix": [
        20.117799999999999,
        0,
        0,
        0,
        0,
        19.857600000000001,
        -3.2256300000000002,
        0,
        0,
        3.2256300000000002,
        19.857600000000001,
        0,
        0.0054169999999999999,
        -2.9004300000000001,
        -11.8424,
        1
      ],
      "name": "innerLiner"
    },
    {
      "mesh": 4,
      "name": "baseballCap"
    },
    {
      "children": [
        26
      ],
      "matrix": [
        20.117799999999999,
        0,
        0,
        0,
        0,
        19.857600000000001,
        -3.2256300000000002,
        0,
        0,
        3.2256300000000002,
        19.857600000000001,
        0,
        0.0054169999999999999,
        -2.9003899999999998,
        -11.8424,
        1
      ],
      "name": "metalButton"
    },
    {
      "mesh": 5,
      "name": "blinn1SG"
    },
    {
      "children": [
        28
      ],
      "matrix": [
        20.117799999999999,
        0,
        0,
        0,
        0,
        19.857600000000001,
        -3.2256300000000002,
        0,
        0,
        3.2256300000000002,
        19.857600000000001,
        0,
        0.0054169999999999999,
        -2.90042,
        -11.8424,
        1
      ],
      "name": "mainCap"
    },
    {
      "mesh": 6,
      "name": "baseballCap"
    }
  ],
  "samplers": [
    {
      "magFilter": 9729,
      "minFilter": 9987,
      "wrapS": 10497,
      "wrapT": 10497
    }
  ],
  "scene": 0,
  "scenes": [
    {
      "name": "OSG_Scene",
      "nodes": [
        0
      ]
    }
  ],
  "textures": [
    {
      "sampler": 0,
      "source": 0
    },
    {
      "sampler": 0,
      "source": 1
    },
    {
      "sampler": 0,
      "source": 2
    }
  ]
}

